<svg xmlns="http://www.w3.org/2000/svg" width="256.185" height="32.837" viewBox="0 0 256.185 32.837">
  <g id="Group_4" data-name="Group 4" transform="translate(-195.82 -894.721)">
    <g id="Group_1" data-name="Group 1" transform="translate(195.82 895.835)">
      <path id="Path_1" data-name="Path 1" d="M222.545,929.742H212.51l-4.74-7.01h-2.55v7.01h-9.4v-14.1h12.825a4.185,4.185,0,0,0,2.868-.856,3.514,3.514,0,0,0,0-4.819,4.174,4.174,0,0,0-2.868-.858H195.82v-7.247h13.422a16.448,16.448,0,0,1,6.73,1.275,10.3,10.3,0,0,1,4.621,14.458,9.577,9.577,0,0,1-3.9,3.545Z" transform="translate(-195.82 -901.861)" fill="#027ab7"/>
    </g>
    <path id="Path_2" data-name="Path 2" d="M398.324,901.854h-9.241L376.9,929.735h9.559l1.872-4.859,2.589-6.771,2.709-7.01,2.709,7.01,2.589,6.771,1.872,4.859h9.719Z" transform="translate(-152.836 -6.021)" fill="#027ab7"/>
    <path id="Path_3" data-name="Path 3" d="M836.076,901.854h-9.241l-12.188,27.881h9.559l1.872-4.859,2.589-6.771,2.708-7.01,2.709,7.01,2.589,6.771,1.872,4.859h9.719Z" transform="translate(-522.319 -6.021)" fill="#027ab7"/>
    <path id="Path_4" data-name="Path 4" d="M1483.815,901.854h-9.241l-12.188,27.881h9.559l1.872-4.859,2.589-6.771,2.709-7.01,2.708,7.01,2.589,6.771,1.872,4.859H1496Z" transform="translate(-1069.041 -6.021)" fill="#027ab7"/>
    <path id="Path_5" data-name="Path 5" d="M1075.019,929.735l-.08-12.706-6.054,10.2h-4.142l-6.054-9.759v12.268h-8.563V901.854h7.727l9.081,14.857,8.842-14.857h7.727l.08,27.881Z" transform="translate(-721.073 -6.021)" fill="#027ab7"/>
    <path id="Path_6" data-name="Path 6" d="M1399.482,901.861l-3.938,6.617c1.326,2.238,3.047,5.14,4.555,7.683l8.464-14.3Z" transform="translate(-1012.623 -6.026)" fill="#ef0220"/>
    <path id="Path_7" data-name="Path 7" d="M1303.815,918.739v11h-9.4V919.5L1283.9,901.86h9.919l3.891,6.586c.012.019.1.164.243.41l.084.145c.031.05.065.1.1.164l1.379,2.335,0-.008C1300.709,913.5,1302.32,916.22,1303.815,918.739Z" transform="translate(-918.39 -6.026)" fill="#027ab7"/>
    <path id="Path_8" data-name="Path 8" d="M625.793,919.843a14.822,14.822,0,0,0,2.793-4.558,14.563,14.563,0,0,0,.987-5.315,15.184,15.184,0,0,0-1.071-5.587,15.327,15.327,0,0,0-7.793-8.339,14.158,14.158,0,0,0-6.176-1.323,14.909,14.909,0,0,0-6.112,1.239,15.228,15.228,0,0,0-8,8.171,14.645,14.645,0,0,0-1.134,5.672,15.013,15.013,0,0,0,1.092,5.629,15.488,15.488,0,0,0,3.067,4.852,14.988,14.988,0,0,0,4.747,3.4,13.673,13.673,0,0,0,3.645,1.089v-2.788a5.849,5.849,0,0,0-2.392-4.642,8.916,8.916,0,1,1,10.727,0,5.849,5.849,0,0,0-2.392,4.642v2.619c.088-.02.176-.038.263-.059a14.715,14.715,0,0,0,3.3-1.218l1.344,1.428h7.646Z" transform="translate(-340.543 0)" fill="#027ab7"/>
    <g id="Group_2" data-name="Group 2" transform="translate(271.324 925.553)">
      <path id="Path_9" data-name="Path 9" d="M684.489,1094.425h-3.173a1.354,1.354,0,0,1-1.354-1.354v-.651h5.882v.651A1.355,1.355,0,0,1,684.489,1094.425Z" transform="translate(-679.961 -1092.42)" fill="#ef0220"/>
    </g>
    <g id="Group_3" data-name="Group 3" transform="translate(426.274 895.833)">
      <path id="Path_10" data-name="Path 10" d="M1673.527,901.854v7.289h25.731v-7.289Zm8.166,27.881h9.4V912.123h-9.4Z" transform="translate(-1673.527 -901.854)" fill="#027ab7"/>
    </g>
  </g>
</svg>
